<svg xmlns="http://www.w3.org/2000/svg" xmlns:xlink="http://www.w3.org/1999/xlink" viewBox="0 0 257 71" fill="#fff" fill-rule="evenodd" stroke="#000" stroke-linecap="round" stroke-linejoin="round"><use xlink:href="#A" x=".5" y=".5"/><symbol id="A" overflow="visible"><path d="M35.2 64.726c-3.85.676-7.77.88-11.823 1.42L11.013 29.93V67.7c-3.85.405-7.364.946-11.013 1.486V0h10.27l14.053 39.255V0H35.2v64.726zm21.283-39.4l14.46-.203v10.8l-14.46.203v16.08l19.12-1.15V61.47l-29.93 2.365V0h29.93v10.8h-19.12v14.526zm59.32-14.526H104.6v49.727l-10.8.135V10.8H82.564V0h33.24v10.8zm17.567 13.783h14.797v10.8H133.37V59.93h-10.608V0h30.202v10.8H133.37v13.783zm37.16 25.877c6.15.135 12.364.608 18.377.946V62.1l-29.187-1.42V0h10.8v50.47zm27.5 12.364c3.446.203 7.094.406 10.607.8V0H198.03v62.835zM256 0l-13.716 32.904L256 69.186c-4.054-.54-8.108-1.284-12.162-1.96l-7.77-19.998-7.904 18.378c-3.92-.676-7.703-.88-11.62-1.42l13.918-31.688L217.894 0h11.62l7.094 18.175L244.176 0H256z" stroke="none" fill="#d81f26" fill-rule="nonzero"/></symbol></svg>